<?xml version="1.0" encoding="utf-8"?>
<!-- Generator: Adobe Illustrator 25.2.3, SVG Export Plug-In . SVG Version: 6.00 Build 0)  -->
<svg version="1.1" id="레이어_1" xmlns="http://www.w3.org/2000/svg" xmlns:xlink="http://www.w3.org/1999/xlink" x="0px"
	 y="0px" viewBox="0 0 148.99 35.99" style="enable-background:new 0 0 148.99 35.99;" xml:space="preserve">
<style type="text/css">
	.st0{fill:url(#SVGID_1_);}
	.st1{fill:url(#SVGID_2_);}
	.st2{fill:#999899;}
	.st3{fill:#FFFFFF;}
	.st4{fill:#30A1D2;}
</style>
<g>
	<g>
		<linearGradient id="SVGID_1_" gradientUnits="userSpaceOnUse" x1="39.9372" y1="24.3685" x2="61.4551" y2="24.3685">
			<stop  offset="0" style="stop-color:#052B6D"/>
			<stop  offset="1" style="stop-color:#88CEDA"/>
		</linearGradient>
		<path class="st0" d="M38.64,18c0,0,5.17,0.75,5.17,7.45c0,4.36,0.58,7.3,5.17,3.64C51.44,27.13,55.91,18,60.16,18H38.64z"/>
		
			<linearGradient id="SVGID_2_" gradientUnits="userSpaceOnUse" x1="345.881" y1="-510.7584" x2="367.3988" y2="-510.7584" gradientTransform="matrix(-1 0 0 -1 394.0001 -499.1368)">
			<stop  offset="0" style="stop-color:#052B6D"/>
			<stop  offset="1" style="stop-color:#88CEDA"/>
		</linearGradient>
		<path class="st1" d="M49.42,18c0,0-5.17-0.75-5.17-7.45c0-4.36-0.58-7.3-5.17-3.64C36.61,8.86,32.14,18,27.9,18H49.42z"/>
	</g>
	<g>
		<g>
			<path class="st2" d="M68.53,22.79c-0.07,0.06-0.14,0.09-0.23,0.09h-0.5c0,0,0,0-0.01,0c0,0,0,0,0-0.01v-1.23c0,0,0-0.01,0-0.01
				c0,0,0,0,0.01,0h0.23c0,0,0.01,0,0.01,0c0,0,0,0,0,0.01v1.02h0.21c0.03,0,0.05-0.01,0.07-0.03l1.01-1c0,0,0,0,0.01,0h0.32
				c0,0,0.01,0,0.01,0.01c0,0,0,0.01,0,0.01L68.53,22.79z"/>
			<path class="st2" d="M70.81,22.87C70.81,22.88,70.81,22.88,70.81,22.87c-0.01,0.01-0.01,0.01-0.01,0.01h-0.23c0,0,0,0-0.01,0
				c0,0,0,0,0-0.01v-1.23c0,0,0-0.01,0-0.01c0,0,0,0,0.01,0h0.23c0,0,0.01,0,0.01,0c0,0,0,0,0,0.01V22.87z"/>
			<path class="st2" d="M73.48,22.12c0,0.07-0.02,0.14-0.06,0.2c-0.04,0.06-0.09,0.1-0.15,0.13l0,0.01l0.2,0.42c0,0,0,0.01,0,0.01
				c0,0,0,0-0.01,0h-0.25c0,0-0.01,0-0.01-0.01l-0.19-0.4h-1.06v0.4c0,0,0,0,0,0.01c0,0,0,0-0.01,0h-0.23c0,0,0,0-0.01,0
				c0,0,0,0,0-0.01v-1.23c0,0,0-0.01,0-0.01c0,0,0,0,0.01,0h1.42c0.1,0,0.18,0.03,0.25,0.1c0.07,0.07,0.1,0.15,0.1,0.25V22.12z
				 M71.95,22.26h1.18c0.03,0,0.05-0.01,0.07-0.03c0.02-0.02,0.03-0.05,0.03-0.08v-0.2c0-0.03-0.01-0.05-0.03-0.07
				c-0.02-0.02-0.05-0.03-0.07-0.03h-1.18V22.26z"/>
			<path class="st2" d="M74.36,21.65C74.36,21.64,74.36,21.64,74.36,21.65c0.01-0.01,0.01-0.01,0.01-0.01h1.76c0,0,0,0,0.01,0
				c0,0,0,0,0,0.01v0.19c0,0,0,0,0,0.01c0,0,0,0-0.01,0h-0.76v1.02c0,0,0,0.01,0,0.01c0,0,0,0-0.01,0h-0.23c0,0-0.01,0-0.01,0
				c0,0,0,0,0-0.01v-1.02h-0.76c0,0,0,0-0.01,0c0,0,0,0,0-0.01V21.65z"/>
			<path class="st2" d="M78.82,22.53c0,0.1-0.03,0.18-0.1,0.25c-0.07,0.07-0.15,0.1-0.25,0.1h-1.07c-0.1,0-0.18-0.03-0.25-0.1
				c-0.07-0.07-0.1-0.15-0.1-0.25v-0.88c0,0,0-0.01,0-0.01c0,0,0,0,0.01,0h0.23c0,0,0,0,0.01,0c0,0,0,0,0,0.01v0.92
				c0,0.03,0.01,0.06,0.03,0.08c0.02,0.02,0.05,0.03,0.08,0.03h1.07c0.03,0,0.06-0.01,0.08-0.03c0.02-0.02,0.03-0.05,0.03-0.08
				v-0.92c0,0,0-0.01,0-0.01c0,0,0,0,0.01,0h0.23c0,0,0.01,0,0.01,0c0,0,0,0,0,0.01V22.53z"/>
			<path class="st2" d="M80.84,21.73c0.07-0.06,0.14-0.09,0.23-0.09h0.5c0,0,0.01,0,0.01,0c0,0,0,0,0,0.01v1.23c0,0,0,0,0,0.01
				c0,0,0,0-0.01,0h-0.23c0,0,0,0-0.01,0c0,0,0,0,0-0.01v-1.02h-0.21c-0.03,0-0.05,0.01-0.07,0.03l-1.01,1c0,0,0,0-0.01,0h-0.32
				c0,0-0.01,0-0.01-0.01c0,0,0-0.01,0-0.01L80.84,21.73z"/>
			<path class="st2" d="M84.25,22.87C84.25,22.88,84.24,22.88,84.25,22.87C84.24,22.88,84.24,22.88,84.25,22.87l-1.43,0.01
				c-0.1,0-0.18-0.03-0.25-0.1s-0.1-0.15-0.1-0.25v-0.88c0,0,0-0.01,0-0.01c0,0,0,0,0.01,0h0.23c0,0,0.01,0,0.01,0c0,0,0,0,0,0.01
				v0.92c0,0.03,0.01,0.05,0.03,0.08c0.02,0.02,0.05,0.03,0.08,0.03h1.42c0,0,0,0,0.01,0c0,0,0,0,0,0.01V22.87z"/>
			<path class="st2" d="M88.75,22.87C88.75,22.88,88.74,22.88,88.75,22.87c-0.01,0.01-0.01,0.01-0.01,0.01h-0.23c0,0,0,0-0.01,0
				c0,0,0,0,0-0.01v-1.02h-0.14c-0.05,0-0.08,0.02-0.1,0.07l-0.34,0.95c0,0,0,0.01-0.01,0.01h-0.19c0,0-0.01,0-0.01-0.01l-0.34-0.95
				c-0.02-0.05-0.06-0.07-0.1-0.07h-0.14v1.02c0,0,0,0.01,0,0.01c0,0,0,0-0.01,0H86.9c0,0,0,0-0.01,0c0,0,0,0,0-0.01v-1.23
				c0,0,0-0.01,0-0.01c0,0,0,0,0.01,0h0.46c0.01,0,0.02,0,0.02,0c0.05,0.01,0.09,0.02,0.12,0.05s0.06,0.07,0.08,0.11l0.23,0.66
				l0.23-0.66c0.02-0.05,0.04-0.08,0.08-0.11c0.04-0.03,0.08-0.05,0.12-0.05c0.01,0,0.02,0,0.02,0h0.46c0,0,0.01,0,0.01,0
				c0,0,0,0,0,0.01V22.87z"/>
			<path class="st2" d="M89.88,22.15h1.34c0,0,0.01,0,0.01,0s0,0,0,0.01v0.19c0,0,0,0.01,0,0.01c0,0,0,0-0.01,0h-1.34v0.2
				c0,0.03,0.01,0.05,0.03,0.08c0.02,0.02,0.05,0.03,0.08,0.03h1.42c0,0,0.01,0,0.01,0c0,0,0,0,0,0.01v0.19c0,0,0,0.01,0,0.01
				c0,0,0,0-0.01,0h-1.42c-0.1,0-0.18-0.03-0.25-0.1s-0.1-0.15-0.1-0.25v-0.53c0-0.1,0.03-0.18,0.1-0.25
				c0.07-0.07,0.15-0.1,0.25-0.1h1.42c0,0,0.01,0,0.01,0c0,0,0,0,0,0.01v0.19c0,0,0,0,0,0.01c0,0,0,0-0.01,0h-1.42
				c-0.03,0-0.06,0.01-0.08,0.03c-0.02,0.02-0.03,0.05-0.03,0.08V22.15z"/>
			<path class="st2" d="M93.73,21.64c0.1,0,0.18,0.03,0.25,0.1c0.07,0.07,0.1,0.15,0.1,0.25v0.53c0,0.1-0.03,0.18-0.1,0.25
				c-0.07,0.07-0.15,0.1-0.25,0.1h-1.42c0,0,0,0-0.01,0c0,0,0,0,0-0.01v-1.23c0,0,0-0.01,0-0.01c0,0,0,0,0.01,0H93.73z M93.83,21.96
				c0-0.03-0.01-0.05-0.03-0.08c-0.02-0.02-0.05-0.03-0.08-0.03h-1.18v0.82h1.18c0.03,0,0.06-0.01,0.08-0.03
				c0.02-0.02,0.03-0.05,0.03-0.08V21.96z"/>
			<path class="st2" d="M95.22,22.87C95.22,22.88,95.22,22.88,95.22,22.87c-0.01,0.01-0.01,0.01-0.01,0.01h-0.23c0,0,0,0-0.01,0
				c0,0,0,0,0-0.01v-1.23c0,0,0-0.01,0-0.01c0,0,0,0,0.01,0h0.23c0,0,0.01,0,0.01,0c0,0,0,0,0,0.01V22.87z"/>
			<path class="st2" d="M97.88,22.67C97.88,22.67,97.88,22.67,97.88,22.67c0.01,0.01,0.01,0.01,0.01,0.01v0.19c0,0,0,0.01,0,0.01
				c0,0,0,0-0.01,0h-1.42c-0.1,0-0.18-0.03-0.25-0.1s-0.1-0.15-0.1-0.25v-0.53c0-0.1,0.03-0.18,0.1-0.25
				c0.07-0.07,0.15-0.1,0.25-0.1h1.42c0,0,0.01,0,0.01,0c0,0,0,0,0,0.01v0.19c0,0,0,0,0,0.01c0,0,0,0-0.01,0h-1.42
				c-0.03,0-0.06,0.01-0.08,0.03c-0.02,0.02-0.03,0.05-0.03,0.08v0.61c0,0.03,0.01,0.05,0.03,0.08c0.02,0.02,0.05,0.03,0.08,0.03
				H97.88z"/>
			<path class="st2" d="M99.91,21.73c0.07-0.06,0.14-0.09,0.23-0.09h0.5c0,0,0.01,0,0.01,0c0,0,0,0,0,0.01v1.23c0,0,0,0,0,0.01
				c0,0,0,0-0.01,0h-0.23c0,0,0,0-0.01,0c0,0,0,0,0-0.01v-1.02h-0.21c-0.03,0-0.05,0.01-0.07,0.03l-1.01,1c0,0,0,0-0.01,0h-0.32
				c0,0-0.01,0-0.01-0.01c0,0,0-0.01,0-0.01L99.91,21.73z"/>
			<path class="st2" d="M103.32,22.87C103.32,22.88,103.32,22.88,103.32,22.87C103.31,22.88,103.31,22.88,103.32,22.87l-1.43,0.01
				c-0.1,0-0.18-0.03-0.25-0.1c-0.07-0.07-0.1-0.15-0.1-0.25v-0.88c0,0,0-0.01,0-0.01c0,0,0,0,0.01,0h0.23c0,0,0.01,0,0.01,0
				c0,0,0,0,0,0.01v0.92c0,0.03,0.01,0.05,0.03,0.08c0.02,0.02,0.05,0.03,0.08,0.03h1.42c0,0,0,0,0.01,0c0,0,0,0,0,0.01V22.87z"/>
			<path class="st2" d="M107.75,22.12c0,0.07-0.02,0.14-0.06,0.2c-0.04,0.06-0.09,0.1-0.15,0.13l0,0.01l0.2,0.42c0,0,0,0.01,0,0.01
				c0,0,0,0-0.01,0h-0.25c0,0-0.01,0-0.01-0.01l-0.19-0.4h-1.06v0.4c0,0,0,0,0,0.01c0,0,0,0-0.01,0h-0.23c0,0,0,0-0.01,0
				c0,0,0,0,0-0.01v-1.23c0,0,0-0.01,0-0.01c0,0,0,0,0.01,0h1.42c0.1,0,0.18,0.03,0.25,0.1c0.07,0.07,0.1,0.15,0.1,0.25V22.12z
				 M106.21,22.26h1.18c0.03,0,0.05-0.01,0.07-0.03c0.02-0.02,0.03-0.05,0.03-0.08v-0.2c0-0.03-0.01-0.05-0.03-0.07
				c-0.02-0.02-0.05-0.03-0.07-0.03h-1.18V22.26z"/>
			<path class="st2" d="M108.88,22.15h1.34c0,0,0.01,0,0.01,0s0,0,0,0.01v0.19c0,0,0,0.01,0,0.01c0,0,0,0-0.01,0h-1.34v0.2
				c0,0.03,0.01,0.05,0.03,0.08c0.02,0.02,0.05,0.03,0.08,0.03h1.42c0,0,0.01,0,0.01,0c0,0,0,0,0,0.01v0.19c0,0,0,0.01,0,0.01
				c0,0,0,0-0.01,0h-1.42c-0.1,0-0.18-0.03-0.25-0.1s-0.1-0.15-0.1-0.25v-0.53c0-0.1,0.03-0.18,0.1-0.25
				c0.07-0.07,0.15-0.1,0.25-0.1h1.42c0,0,0.01,0,0.01,0c0,0,0,0,0,0.01v0.19c0,0,0,0,0,0.01c0,0,0,0-0.01,0h-1.42
				c-0.03,0-0.06,0.01-0.08,0.03c-0.02,0.02-0.03,0.05-0.03,0.08V22.15z"/>
			<path class="st2" d="M113.07,22.67C113.08,22.67,113.08,22.67,113.07,22.67c0.01,0.01,0.01,0.01,0.01,0.01v0.19
				c0,0,0,0.01,0,0.01c0,0,0,0-0.01,0h-1.42c-0.1,0-0.18-0.03-0.25-0.1s-0.1-0.15-0.1-0.25v-0.53c0-0.1,0.03-0.18,0.1-0.25
				c0.07-0.07,0.15-0.1,0.25-0.1h1.42c0,0,0.01,0,0.01,0c0,0,0,0,0,0.01v0.19c0,0,0,0,0,0.01c0,0,0,0-0.01,0h-1.42
				c-0.03,0-0.06,0.01-0.08,0.03c-0.02,0.02-0.03,0.05-0.03,0.08v0.61c0,0.03,0.01,0.05,0.03,0.08c0.02,0.02,0.05,0.03,0.08,0.03
				H113.07z"/>
			<path class="st2" d="M115.4,21.64c0.1,0,0.18,0.03,0.25,0.1c0.07,0.07,0.1,0.15,0.1,0.25v0.53c0,0.1-0.03,0.18-0.1,0.25
				c-0.07,0.07-0.15,0.1-0.25,0.1h-1.07c-0.1,0-0.18-0.03-0.25-0.1s-0.1-0.15-0.1-0.25v-0.53c0-0.1,0.03-0.18,0.1-0.25
				c0.07-0.07,0.15-0.1,0.25-0.1H115.4z M115.5,21.96c0-0.03-0.01-0.05-0.03-0.08c-0.02-0.02-0.05-0.03-0.08-0.03h-1.07
				c-0.03,0-0.05,0.01-0.08,0.03c-0.02,0.02-0.03,0.05-0.03,0.08v0.61c0,0.03,0.01,0.05,0.03,0.08c0.02,0.02,0.05,0.03,0.08,0.03
				h1.07c0.03,0,0.06-0.01,0.08-0.03c0.02-0.02,0.03-0.05,0.03-0.08V21.96z"/>
			<path class="st2" d="M118.42,22.12c0,0.07-0.02,0.14-0.06,0.2c-0.04,0.06-0.09,0.1-0.15,0.13l0,0.01l0.2,0.42c0,0,0,0.01,0,0.01
				c0,0,0,0-0.01,0h-0.25c0,0-0.01,0-0.01-0.01l-0.19-0.4h-1.06v0.4c0,0,0,0,0,0.01c0,0,0,0-0.01,0h-0.23c0,0,0,0-0.01,0
				c0,0,0,0,0-0.01v-1.23c0,0,0-0.01,0-0.01c0,0,0,0,0.01,0h1.42c0.1,0,0.18,0.03,0.25,0.1c0.07,0.07,0.1,0.15,0.1,0.25V22.12z
				 M116.89,22.26h1.18c0.03,0,0.05-0.01,0.07-0.03c0.02-0.02,0.03-0.05,0.03-0.08v-0.2c0-0.03-0.01-0.05-0.03-0.07
				c-0.02-0.02-0.05-0.03-0.07-0.03h-1.18V22.26z"/>
			<path class="st2" d="M120.73,21.64c0.1,0,0.18,0.03,0.25,0.1c0.07,0.07,0.1,0.15,0.1,0.25v0.53c0,0.1-0.03,0.18-0.1,0.25
				c-0.07,0.07-0.15,0.1-0.25,0.1h-1.42c0,0,0,0-0.01,0c0,0,0,0,0-0.01v-1.23c0,0,0-0.01,0-0.01c0,0,0,0,0.01,0H120.73z
				 M120.84,21.96c0-0.03-0.01-0.05-0.03-0.08c-0.02-0.02-0.05-0.03-0.08-0.03h-1.18v0.82h1.18c0.03,0,0.06-0.01,0.08-0.03
				c0.02-0.02,0.03-0.05,0.03-0.08V21.96z"/>
		</g>
		<g>
			<path class="st3" d="M76.86,13.11l-3.29,5.48h-1.1l-3.29-5.48h1.25l2.58,4.1l2.55-4.1H76.86z"/>
			<path class="st3" d="M84.09,14.2H80.8v4.38h-1.1v-5.48h7.67c1.46,0,2.19,0.73,2.19,2.19v3.29h-1.1V15.3c0-0.73-0.37-1.1-1.1-1.1
				h-2.19v4.38h-1.1V14.2z"/>
			<path class="st3" d="M96.8,16.39h-3.29v2.19h-1.1v-5.48h5.48c1.46,0,2.19,0.55,2.19,1.64s-0.73,1.64-2.19,1.64
				c0,0.73,0.37,1.1,1.1,1.1h1.1v1.1h-1.1C97.53,18.58,96.8,17.85,96.8,16.39z M97.9,15.3c0.73,0,1.1-0.18,1.1-0.55
				c0-0.37-0.37-0.55-1.1-0.55h-4.38v1.1H97.9z"/>
			<path class="st4" d="M105.95,15.84l-3.01-2.74h1.64l2.19,1.99l2.19-1.99h1.64l-3.01,2.74l3.01,2.74h-1.64l-2.19-1.99l-2.19,1.99
				h-1.64L105.95,15.84z"/>
			<path class="st4" d="M116.41,16.39h-3.29v2.19h-1.1v-5.48h5.48c1.46,0,2.19,0.55,2.19,1.64s-0.73,1.64-2.19,1.64
				c0,0.73,0.37,1.1,1.1,1.1h1.1v1.1h-1.1C117.14,18.58,116.41,17.85,116.41,16.39z M117.51,15.3c0.73,0,1.1-0.18,1.1-0.55
				c0-0.37-0.37-0.55-1.1-0.55h-4.38v1.1H117.51z"/>
		</g>
	</g>
</g>
</svg>
